<svg xmlns="http://www.w3.org/2000/svg" width="512" height="512" viewBox="0 0 512 512" role="img" aria-labelledby="title desc">
  <title id="title">LobbyRush logo</title>
  <desc id="desc">A simple modern LR monogram with a neon rush accent.</desc>
  <defs>
    <linearGradient id="accent" x1="126" y1="386" x2="394" y2="124" gradientUnits="userSpaceOnUse">
      <stop stop-color="#FF5A2B"/>
      <stop offset="0.52" stop-color="#FF2D75"/>
      <stop offset="1" stop-color="#6A35FF"/>
    </linearGradient>
    <filter id="softGlow" x="-30%" y="-30%" width="160%" height="160%" color-interpolation-filters="sRGB">
      <feGaussianBlur stdDeviation="14" result="blur"/>
      <feColorMatrix in="blur" type="matrix" values="1 0 0 0 1  0 1 0 0 0.27  0 0 1 0 0.22  0 0 0 0.38 0"/>
      <feMerge>
        <feMergeNode/>
        <feMergeNode in="SourceGraphic"/>
      </feMerge>
    </filter>
  </defs>
  <rect width="512" height="512" rx="112" fill="#0D0F15"/>
  <rect x="38" y="38" width="436" height="436" rx="92" fill="#131722" stroke="#FFFFFF" stroke-opacity="0.10" stroke-width="6"/>
  <path d="M156 132v232h146" fill="none" stroke="#FFFFFF" stroke-width="58" stroke-linecap="round" stroke-linejoin="round"/>
  <path d="M304 132h38c51 0 84 29 84 74 0 35-19 61-52 71l54 87h-68l-47-80h-9" fill="none" stroke="#FFFFFF" stroke-width="48" stroke-linecap="round" stroke-linejoin="round"/>
  <path d="M292 230h50c19 0 32-10 32-25s-13-25-32-25h-50" fill="none" stroke="#0D0F15" stroke-width="18" stroke-linecap="round"/>
  <path d="M126 386 392 126" fill="none" stroke="url(#accent)" stroke-width="28" stroke-linecap="round" filter="url(#softGlow)"/>
  <circle cx="392" cy="126" r="17" fill="#D9FF66"/>
</svg>
